# xmcd
#
# Track frame offsets:
#	150
#	14250
#	26925
#	41554
#	54891
#	70875
#	82439
#	105542
#	119530
#	136221
#	151296
#	168490
#	184540
#	199838
#	217588
#
# Disc length: 3044 seconds
#
# Revision: 1
# Processed by: cddbd v1.5.2PL0 Copyright (c) Steve Scherf et al.
# Submitted via: audiograbber 1.83.01
#
DISCID=cb0be20f
DTITLE=Mr. John Kampen and Friends - To the Kids from Tschernobyl
DYEAR=1900
DGENRE=Country
TTITLE0=Apace-Dirk  Pawalka
TTITLE1=Wer hat ein Herz dass nie bricht-Joe Harper
TTITLE2=Country Roads-Mr. John Kampen
TTITLE3=I allways take the long way Home-Miss Kitty
TTITLE4=Ich möcht so gern Dave Dudley hör´n-Joe Harper
TTITLE5=Sold-Dusty
TTITLE6=Me and You-Mr. John Kampen and Walter Teidtscheid
TTITLE7=Crazy-Claudia Pawalka
TTITLE8=Detroit City-Mr. John Kampen and Band
TTITLE9=All my Ex´s live in Texas-Oklahoma Heart
TTITLE10=You say, You will-Miss Curly
TTITLE11=Breathless-Ariane
TTITLE12=My list-Dusty
TTITLE13=Take my Hand-Miss Curly and Mr. John Kampen
TTITLE14=Living in a house full of Love-Dusty
EXTD=
EXTT0=
EXTT1=
EXTT2=
EXTT3=
EXTT4=
EXTT5=
EXTT6=
EXTT7=
EXTT8=
EXTT9=
EXTT10=
EXTT11=
EXTT12=
EXTT13=
EXTT14=
PLAYORDER=
